<mxfile host="app.diagrams.net" modified="2024-02-22T20:05:01.296Z" agent="Mozilla/5.0 (Windows NT 10.0; Win64; x64) AppleWebKit/537.36 (KHTML, like Gecko) Chrome/121.0.0.0 Safari/537.36 Edg/121.0.0.0" version="23.1.5" etag="jpobqxDk8iI51Nm_Dj2e" type="github">
  <diagram name="PÃ¡gina-1" id="TX2uZzmQYocX77LYftKc">
    <mxGraphModel>
      <root>
        <mxCell id="0" />
        <mxCell id="1" parent="0" />
      </root>
    </mxGraphModel>
  </diagram>
</mxfile>
